<svg width="427" height="218" viewBox="0 0 427 218" fill="none" xmlns="http://www.w3.org/2000/svg">
<path fill-rule="evenodd" clip-rule="evenodd" d="M67 200.247V218H0V175.61H17.5801V200.247H67ZM0 41.8701H17.5801V17.2338H67V1.52588e-05H0V41.8701ZM360 0V17.2337H409.416V41.8701H427V0H360ZM427 175.61H409.416V200.247H360V218L427 218V175.61Z" fill="#C4C4C4"/>
<g clip-path="url(#clip0)">
<path fill-rule="evenodd" clip-rule="evenodd" d="M263.392 58.625H163.642C161.437 58.625 159.323 59.5008 157.764 61.0597C156.205 62.6186 155.329 64.7329 155.329 66.9375V150.062C155.329 152.267 156.205 154.381 157.764 155.94C159.323 157.499 161.437 158.375 163.642 158.375H263.392C265.596 158.375 267.711 157.499 269.269 155.94C270.828 154.381 271.704 152.267 271.704 150.062V66.9375C271.704 64.7329 270.828 62.6186 269.269 61.0597C267.711 59.5008 265.596 58.625 263.392 58.625ZM163.642 50.3125C159.232 50.3125 155.004 52.0641 151.886 55.1818C148.768 58.2996 147.017 62.5283 147.017 66.9375V150.062C147.017 154.472 148.768 158.7 151.886 161.818C155.004 164.936 159.232 166.688 163.642 166.688H263.392C265.575 166.688 267.737 166.257 269.754 165.422C271.771 164.587 273.603 163.362 275.147 161.818C276.691 160.274 277.916 158.442 278.751 156.425C279.587 154.408 280.017 152.246 280.017 150.062V66.9375C280.017 62.5283 278.265 58.2996 275.147 55.1818C272.029 52.0641 267.801 50.3125 263.392 50.3125H163.642Z" fill="#C8C8C8"/>
<path d="M235.511 105.557C236.129 104.941 236.924 104.535 237.785 104.397C238.646 104.258 239.528 104.393 240.308 104.784L271.704 120.968V158.375H155.329V141.75L177.324 122.182C178.003 121.505 178.896 121.084 179.85 120.99C180.805 120.896 181.763 121.135 182.561 121.667L204.672 136.405L235.511 105.565V105.557Z" fill="#C8C8C8"/>
<path fill-rule="evenodd" clip-rule="evenodd" d="M184.423 100.188C186.06 100.188 187.682 99.865 189.194 99.2384C190.707 98.6118 192.082 97.6933 193.24 96.5355C194.397 95.3777 195.316 94.0031 195.942 92.4903C196.569 90.9776 196.892 89.3562 196.892 87.7188C196.892 86.0813 196.569 84.4599 195.942 82.9472C195.316 81.4344 194.397 80.0598 193.24 78.902C192.082 77.7442 190.707 76.8257 189.194 76.1991C187.682 75.5725 186.06 75.25 184.423 75.25C181.116 75.25 177.944 76.5637 175.606 78.902C173.268 81.2404 171.954 84.4118 171.954 87.7188C171.954 91.0257 173.268 94.1971 175.606 96.5355C177.944 98.8738 181.116 100.188 184.423 100.188Z" fill="#C8C8C8"/>
</g>
<defs>
<clipPath id="clip0">
<rect width="133" height="133" fill="white" transform="translate(147 42)"/>
</clipPath>
</defs>
</svg>
